<svg id="Capa_1" enable-background="new 0 0 512 512" height="512" viewBox="0 0 512 512" width="512" xmlns="http://www.w3.org/2000/svg"><g><path d="m498.816 13.184c-17.549-17.549-47.084-17.549-64.633 0l-61.143 61.128c-13.857 13.872-31.04 24.492-49.673 30.703-23.027 7.676-44.253 20.801-61.392 37.954l-41.44 41.426 35.465.618 149.971 2.618c6.226-18.633 17.846-35.815 31.718-49.673l61.128-61.143c17.548-17.547 17.548-46.083-.001-63.631z" fill="#293939"/><path d="m381.991 440.003-22.529-30.044h-103.462-103.462l-22.529 30.029c-10.298 13.726-11.924 31.787-4.263 47.139 7.676 15.337 23.101 24.873 40.254 24.873h90 90c17.153 0 32.578-9.536 40.254-24.873 7.661-15.352 6.035-33.413-4.263-47.124z" fill="#cce6ff"/><path d="m386.254 487.127c7.661-15.352 6.035-33.413-4.263-47.124l-22.529-30.044h-103.462v102.041h90c17.153 0 32.578-9.536 40.254-24.873z" fill="#b8c7e6"/><path d="m256 180h-256v15c0 140.61 115.39 257 256 257s256-116.39 256-257v-15z" fill="#ebf8ff"/><path d="m512 195v-15h-256v272c140.61 0 256-116.39 256-257z" fill="#cce6ff"/><path d="m151 150h-75c-41.353 0-76-33.647-76-75v-75h76c41.353 0 75 33.647 75 75z" fill="#8ad7e6"/><path d="m106.002 56.36h29.997v127.279h-29.997z" fill="#5bb7e6" transform="matrix(.707 -.707 .707 .707 -49.413 120.707)"/><path d="m226 90h-45v-45c0-24.814 20.186-45 45-45h45v45c0 24.814-20.186 45-45 45z" fill="#5bb7e6"/><path d="m271 301v-30h-15-15v30h-30v30h30v30h15 15v-30h30v-30z" fill="#ff6c6c"/><path d="m271 331h30v-30h-30v-30h-15v90h15z" fill="#e63950"/></g></svg>